<svg width="163" height="50" viewBox="0 0 163 50" fill="none" xmlns="http://www.w3.org/2000/svg">
<path d="M12.9921 29.6743C13.6763 28.3664 14.1874 27.3877 14.6984 26.4003C18.2583 19.5923 21.8095 12.7844 25.3867 5.98513C25.7591 5.27489 26.1835 4.57331 26.6772 3.94102C28.808 1.23864 32.1166 1.22131 34.1608 4.00165C35.3041 5.55206 36.2395 7.2757 37.149 8.99067C41.9648 18.0593 46.7546 27.1365 51.5184 36.2311C52.7743 38.6216 53.6058 41.1335 53.1121 43.9225C52.6011 46.7981 50.1412 49.2406 47.8546 49.3272C48.5821 47.7942 49.5695 46.2005 50.1152 44.4768C50.9381 41.8524 50.0892 39.3579 48.8766 37.0106C45.8105 31.0861 42.727 25.1703 39.6088 19.2805C37.3395 14.9931 34.9836 10.749 32.7056 6.47018C32.1773 5.48277 31.4844 4.87646 30.341 4.88512C29.2237 4.88512 28.6001 5.56938 28.115 6.4875C24.7111 12.9663 21.2638 19.4104 17.9118 25.9152C17.1756 27.3444 16.3787 28.5137 14.7244 28.9121C14.2393 29.0247 13.7976 29.3105 12.9834 29.6743H12.9921Z" fill="white"/>
<path d="M0 44.7799C1.93151 46.2004 4.06223 46.8673 6.44414 46.8327C8.85204 46.798 10.8788 45.8886 12.8277 44.5374C15.2442 42.8657 17.6175 41.0122 20.2852 39.8515C25.6813 37.5043 30.9562 38.3964 35.8846 41.5145C36.9066 42.1641 37.868 42.909 38.8381 43.6366C40.0334 44.5201 41.22 44.5894 42.1555 43.7925C43.0303 43.0476 43.2035 41.8696 42.5279 40.5877C38.4051 32.7578 34.3428 24.9018 30.0727 17.1497C29.0766 15.3308 29.0853 13.9883 30.4625 12.4812C30.6097 12.6718 30.8003 12.8536 30.9215 13.0788C35.5208 21.7923 40.1374 30.5058 44.6846 39.2539C45.2217 40.2933 45.6547 41.5578 45.6114 42.6925C45.4728 46.1658 41.8523 48.1319 38.561 46.5902C37.5909 46.1311 36.7161 45.4295 35.8499 44.7713C29.4751 39.9381 22.7884 40.0421 16.5521 45.0744C15.608 45.8366 14.6899 46.6335 13.7111 47.3437C11.0607 49.2406 8.12448 50.0807 4.89374 49.4052C2.37325 48.8768 0.762212 47.2744 0 44.7799Z" fill="white"/>
<path d="M34.5944 35.5381C26.1061 32.3247 18.7872 34.0397 12.0485 39.1759C11.1131 39.8862 10.195 40.6224 9.2249 41.272C7.42331 42.4673 4.98076 42.45 3.39571 41.2807C1.88861 40.172 1.18703 38.0153 1.75003 35.9279C2.00121 35.0011 2.365 34.083 2.81539 33.2341C7.50992 24.3301 12.1698 15.4088 16.9856 6.57407C18.0076 4.69453 19.5667 3.09215 20.9959 1.46379C21.5242 0.866146 22.3904 0.562997 23.3171 0C21.862 2.6764 20.5108 5.08429 19.2289 7.52683C14.4045 16.7253 9.59734 25.9325 4.80754 35.1483C4.4784 35.772 4.0713 36.5775 4.20988 37.1751C4.38311 37.9027 4.9721 38.6822 5.60439 39.1066C6.44456 39.6783 7.38 39.3059 8.1682 38.6736C11.243 36.2137 14.4564 33.9877 18.1722 32.5845C22.3817 30.9995 26.6691 30.7829 31.0519 31.6491C32.2471 31.883 33.1479 32.3593 33.5723 33.5806C33.7802 34.1696 34.144 34.7066 34.5771 35.5294L34.5944 35.5381Z" fill="white"/>
<path d="M57.708 48V34.28H59.78L60.088 36.548C60.788 35.68 61.4553 35.0407 62.09 34.63C62.734 34.21 63.42 34 64.148 34C64.3813 34 64.596 34.028 64.792 34.084L64.54 36.856C64.4187 36.828 64.288 36.8093 64.148 36.8C64.0173 36.7813 63.868 36.772 63.7 36.772C62.972 36.772 62.3 36.9353 61.684 37.262C61.0773 37.5793 60.648 37.9293 60.396 38.312V48H57.708ZM72.5119 48.28C70.9626 48.28 69.6606 47.9673 68.6059 47.342C67.5606 46.7073 66.7672 45.858 66.2259 44.794C65.6939 43.7207 65.4279 42.5307 65.4279 41.224C65.4279 39.8613 65.6846 38.634 66.1979 37.542C66.7206 36.45 67.5186 35.5867 68.5919 34.952C69.6652 34.3173 71.0372 34 72.7079 34C73.4266 34 74.1032 34.0747 74.7379 34.224C75.3819 34.364 75.9559 34.56 76.4599 34.812L76.0679 37.024C75.5546 36.7813 75.0086 36.59 74.4299 36.45C73.8606 36.31 73.2679 36.24 72.6519 36.24C71.1399 36.24 69.9872 36.6693 69.1939 37.528C68.4006 38.3867 68.0039 39.5813 68.0039 41.112C68.0039 42.6053 68.3819 43.8047 69.1379 44.71C69.8939 45.6153 71.0466 46.068 72.5959 46.068C73.2306 46.068 73.8372 45.9933 74.4159 45.844C75.0039 45.6947 75.5639 45.4893 76.0959 45.228L76.4319 47.244C76.0586 47.5053 75.5126 47.7433 74.7939 47.958C74.0752 48.1727 73.3146 48.28 72.5119 48.28ZM78.8988 48V27H81.4468V36.66L80.5508 36.604C81.1948 35.792 81.8854 35.1573 82.6228 34.7C83.3694 34.2333 84.3214 34 85.4788 34C86.6641 34 87.6534 34.266 88.4468 34.798C89.2401 35.33 89.8328 36.072 90.2248 37.024C90.6261 37.976 90.8268 39.0867 90.8268 40.356V48H88.3068V40.664C88.3068 39.152 88.0268 38.0367 87.4668 37.318C86.9161 36.5993 86.0668 36.24 84.9188 36.24C84.0508 36.24 83.2808 36.4733 82.6088 36.94C81.9461 37.4067 81.4188 38.032 81.0268 38.816L81.4468 37.276V48H78.8988ZM99.3458 48.644C98.0298 48.644 96.9051 48.4107 95.9718 47.944C95.0478 47.4773 94.3384 46.852 93.8438 46.068C93.3491 45.284 93.1018 44.416 93.1018 43.464C93.1018 42.7453 93.2231 42.064 93.4658 41.42C93.7084 40.7667 94.0864 40.1413 94.5998 39.544C95.1224 38.9373 95.7991 38.34 96.6298 37.752C95.8178 36.7533 95.2624 35.8713 94.9638 35.106C94.6744 34.3407 94.5298 33.636 94.5298 32.992C94.5298 32.012 94.7538 31.172 95.2018 30.472C95.6591 29.772 96.2658 29.24 97.0218 28.876C97.7778 28.5027 98.6084 28.316 99.5138 28.316C101.11 28.316 102.276 28.6893 103.014 29.436C103.76 30.1733 104.134 31.088 104.134 32.18C104.134 32.992 103.91 33.734 103.462 34.406C103.014 35.078 102.43 35.708 101.712 36.296C100.993 36.884 100.223 37.4627 99.4018 38.032L104.722 43.492C104.927 43.24 105.095 42.8807 105.226 42.414C105.366 41.9473 105.473 41.4433 105.548 40.902C105.632 40.3513 105.692 39.8333 105.73 39.348C105.776 38.8533 105.804 38.4613 105.814 38.172H108.082C108.063 38.7227 108.007 39.3993 107.914 40.202C107.82 40.9953 107.643 41.8307 107.382 42.708C107.13 43.5853 106.756 44.416 106.262 45.2L108.698 48H106.122L104.89 46.712C104.012 47.44 103.149 47.944 102.3 48.224C101.45 48.504 100.466 48.644 99.3458 48.644ZM99.4018 46.74C100.41 46.74 101.25 46.586 101.922 46.278C102.603 45.97 103.172 45.564 103.63 45.06L97.8058 39.236C97.1524 39.6933 96.6111 40.272 96.1818 40.972C95.7524 41.672 95.5378 42.4373 95.5378 43.268C95.5378 43.9027 95.6731 44.486 95.9438 45.018C96.2144 45.5407 96.6344 45.9607 97.2038 46.278C97.7731 46.586 98.5058 46.74 99.4018 46.74ZM98.3378 36.632C99.1031 36.1 99.7471 35.6193 100.27 35.19C100.792 34.7513 101.189 34.3127 101.46 33.874C101.73 33.426 101.866 32.9173 101.866 32.348C101.866 31.676 101.651 31.158 101.222 30.794C100.792 30.43 100.214 30.248 99.4857 30.248C98.7858 30.248 98.1604 30.4813 97.6098 30.948C97.0684 31.4053 96.7978 32.1053 96.7978 33.048C96.7978 33.468 96.8958 33.9767 97.0918 34.574C97.2971 35.1713 97.7124 35.8573 98.3378 36.632ZM113.839 48V30.808H108.127V28.4H122.211V30.808H116.499V48H113.839ZM128.71 48.28C127.095 48.28 125.737 47.9487 124.636 47.286C123.535 46.6233 122.699 45.746 122.13 44.654C121.57 43.5527 121.29 42.344 121.29 41.028C121.29 39.7493 121.551 38.578 122.074 37.514C122.606 36.45 123.371 35.6007 124.37 34.966C125.378 34.322 126.591 34 128.01 34C129.149 34 130.161 34.2287 131.048 34.686C131.944 35.134 132.644 35.792 133.148 36.66C133.661 37.5187 133.918 38.564 133.918 39.796C133.918 39.992 133.909 40.2067 133.89 40.44C133.881 40.664 133.853 40.8973 133.806 41.14H123.866C123.987 42.4093 124.291 43.3987 124.776 44.108C125.261 44.8173 125.873 45.3167 126.61 45.606C127.347 45.8953 128.15 46.04 129.018 46.04C129.653 46.04 130.315 45.9747 131.006 45.844C131.697 45.7133 132.35 45.508 132.966 45.228L133.302 47.216C132.77 47.4493 132.121 47.6873 131.356 47.93C130.591 48.1633 129.709 48.28 128.71 48.28ZM124.09 39.404H131.314C131.314 38.76 131.193 38.2 130.95 37.724C130.707 37.248 130.339 36.884 129.844 36.632C129.349 36.3707 128.719 36.24 127.954 36.24C126.834 36.24 125.971 36.52 125.364 37.08C124.767 37.6307 124.342 38.4053 124.09 39.404ZM142.758 48.28C141.209 48.28 139.907 47.9673 138.852 47.342C137.807 46.7073 137.013 45.858 136.472 44.794C135.94 43.7207 135.674 42.5307 135.674 41.224C135.674 39.8613 135.931 38.634 136.444 37.542C136.967 36.45 137.765 35.5867 138.838 34.952C139.911 34.3173 141.283 34 142.954 34C143.673 34 144.349 34.0747 144.984 34.224C145.628 34.364 146.202 34.56 146.706 34.812L146.314 37.024C145.801 36.7813 145.255 36.59 144.676 36.45C144.107 36.31 143.514 36.24 142.898 36.24C141.386 36.24 140.233 36.6693 139.44 37.528C138.647 38.3867 138.25 39.5813 138.25 41.112C138.25 42.6053 138.628 43.8047 139.384 44.71C140.14 45.6153 141.293 46.068 142.842 46.068C143.477 46.068 144.083 45.9933 144.662 45.844C145.25 45.6947 145.81 45.4893 146.342 45.228L146.678 47.244C146.305 47.5053 145.759 47.7433 145.04 47.958C144.321 48.1727 143.561 48.28 142.758 48.28ZM149.145 48V27H151.693V36.66L150.797 36.604C151.441 35.792 152.132 35.1573 152.869 34.7C153.616 34.2333 154.568 34 155.725 34C156.91 34 157.9 34.266 158.693 34.798C159.486 35.33 160.079 36.072 160.471 37.024C160.872 37.976 161.073 39.0867 161.073 40.356V48H158.553V40.664C158.553 39.152 158.273 38.0367 157.713 37.318C157.162 36.5993 156.313 36.24 155.165 36.24C154.297 36.24 153.527 36.4733 152.855 36.94C152.192 37.4067 151.665 38.032 151.273 38.816L151.693 37.276V48H149.145Z" fill="white"/>
</svg>
